<svg xmlns="http://www.w3.org/2000/svg" data-name="Layer 1" viewBox="0 0 24 30" x="0px" y="0px"><title>rounded</title><path d="M19.84924,8.39343,15.60657,4.15076A1.99488,1.99488,0,0,0,12.674,6.85156L9.36047,9.21838l-.11786-.11786a2,2,0,0,0-2.82843,0L5,10.51471l3.53552,3.53552L5,17.58582V19H6.41418l3.53559-3.53552L13.48529,19l1.41419-1.41418a2,2,0,0,0,0-2.82843l-.11786-.11786,2.36682-3.31348a1.99488,1.99488,0,0,0,2.7008-2.93262Z"/><text x="0" y="39" fill="#000000" font-size="5px" font-weight="bold" font-family="'Helvetica Neue', Helvetica, Arial-Unicode, Arial, Sans-serif">Created by Sophia</text><text x="0" y="44" fill="#000000" font-size="5px" font-weight="bold" font-family="'Helvetica Neue', Helvetica, Arial-Unicode, Arial, Sans-serif">from the Noun Project</text></svg>