<svg xmlns="http://www.w3.org/2000/svg" xmlns:xlink="http://www.w3.org/1999/xlink" version="1.1" x="0px" y="0px" viewBox="0 0 512 640" style="enable-background:new 0 0 512 512;" xml:space="preserve"><g><path d="M308.263,231.133c-5.479-2.319-11.59,0.21-13.908,5.478c-2.318,5.479,0.211,11.592,5.479,13.909   c37.3,16.016,62.378,50.787,66.171,90.617H189.196c-5.901,0-10.537,4.637-10.537,10.537c0,5.901,4.636,10.537,10.537,10.537h56.267   v123.283c0,5.9,4.636,10.537,10.537,10.537c5.901,0,10.537-4.637,10.537-10.537V362.212h110.427   c5.901,0,10.537-4.636,10.537-10.537C387.5,299.201,356.312,251.785,308.263,231.133z"/><path d="M419.533,78.768c-4.004-4.214-10.748-4.425-14.963-0.211l-98.625,95.676v-69.754c26.764-17.07,43.201-46.363,43.201-77.973   c0-5.901-4.636-10.537-10.537-10.537H173.391c-5.901,0-10.537,4.636-10.537,10.537c0,31.611,16.437,60.904,43.201,77.973v126.232   c-48.68,19.809-80.924,66.804-81.556,119.91l-31.822,30.978c-4.215,4.004-4.215,10.748-0.211,14.752   c2.108,2.108,4.847,3.373,7.586,3.373c2.529,0,5.268-1.055,7.377-3.162l195.564-189.875L419.322,93.52   C423.537,89.516,423.537,82.983,419.533,78.768z"/></g><text x="0" y="527" fill="#000000" font-size="5px" font-weight="bold" font-family="'Helvetica Neue', Helvetica, Arial-Unicode, Arial, Sans-serif">Created by Creative Studio</text><text x="0" y="532" fill="#000000" font-size="5px" font-weight="bold" font-family="'Helvetica Neue', Helvetica, Arial-Unicode, Arial, Sans-serif">from the Noun Project</text></svg>